<?xml version="1.0" encoding="UTF-8"?>
<svg width="28px" height="21px" viewBox="0 0 28 21" version="1.1" xmlns="http://www.w3.org/2000/svg" xmlns:xlink="http://www.w3.org/1999/xlink">
    <title>Shape</title>
    <g id="Symbols" stroke="none" stroke-width="1" fill="none" fill-rule="evenodd">
        <g id="Social-icons" transform="translate(0.000000, -1.000000)" fill="#2595CC" fill-rule="nonzero">
            <path d="M20.6643836,22 C20.6643836,22 19.8013699,20.9250211 19.0821919,19.9750399 C22.2226028,19.0500582 23.4212329,17.0000985 23.4212329,17.0000985 C22.4383563,17.6750852 21.5034247,18.1500759 20.6643836,18.4750694 C19.4657535,19.0000591 18.3150686,19.3500522 17.1883562,19.5500483 C14.8869864,20.0000394 12.7773973,19.8750418 10.979452,19.5250487 C9.6130138,19.2500541 8.4383562,18.8500621 7.45547948,18.4500699 C6.90410962,18.2250744 6.30479454,17.9500798 5.70547946,17.6000867 C5.63356166,17.5500877 5.56164386,17.5250882 5.48972604,17.4750892 C5.44178084,17.4500897 5.41780824,17.4250901 5.39383564,17.4000906 C4.96232879,17.1500955 4.72260276,16.975099 4.72260276,16.975099 C4.72260276,16.975099 5.87328768,18.9750595 8.91780825,19.9250409 C8.19863016,20.8750222 7.31164386,22 7.31164386,22 C2.01369863,21.8250034 0,18.2000748 0,18.2000748 C0,10.1502335 3.45205481,3.62536211 3.45205481,3.62536211 C6.90410962,0.925415311 10.1883562,1.00020609 10.1883562,1.00020609 L10.4280822,1.30040792 C6.11301372,2.60038231 4.12328769,4.57534338 4.12328769,4.57534338 C4.12328769,4.57534338 4.65068495,4.27534929 5.53767125,3.85035767 C8.10273976,2.67538082 10.1404109,2.35038723 10.979452,2.27538871 C11.1232878,2.25038921 11.2431507,2.2253897 11.3869863,2.2253897 C12.8493151,2.02539363 14.5034247,1.97539462 16.2294521,2.17539067 C18.5068494,2.45038526 20.9520548,3.15037147 23.4452056,4.57534338 C23.4452056,4.57534338 21.5513699,2.70038033 17.4760275,1.40040595 L17.8116439,1.00020609 C17.8116439,1.00020609 21.0958905,0.925415311 24.5479453,3.62536211 C24.5479453,3.62536211 28,10.1502335 28,18.2000748 C28,18.2000748 25.9623289,21.8250034 20.6643836,22 Z M9.51712336,10.32523 C8.15068496,10.32523 7.07191784,11.5752054 7.07191784,13.1001754 C7.07191784,14.6251453 8.17465756,15.8751207 9.51712336,15.8751207 C10.8835616,15.8751207 11.9623289,14.6251453 11.9623289,13.1001754 C11.9863014,11.5752054 10.8835616,10.32523 9.51712336,10.32523 M18.2671233,10.32523 C16.900685,10.32523 15.8219179,11.5752054 15.8219179,13.1001754 C15.8219179,14.6251453 16.9246575,15.8751207 18.2671233,15.8751207 C19.6335617,15.8751207 20.7123288,14.6251453 20.7123288,13.1001754 C20.7123288,11.5752054 19.6335617,10.32523 18.2671233,10.32523" id="Shape"></path>
        </g>
    </g>
</svg>