<?xml version="1.0" encoding="UTF-8"?>
<svg width="35px" height="18px" viewBox="0 0 35 18" version="1.1" xmlns="http://www.w3.org/2000/svg" xmlns:xlink="http://www.w3.org/1999/xlink">
    <title>medium-svgrepo-com</title>
    <g id="Symbols" stroke="none" stroke-width="1" fill="none" fill-rule="evenodd" stroke-linecap="round" stroke-linejoin="round">
        <g id="Social-icons" transform="translate(-149.000000, -2.000000)" stroke="#2595CC" stroke-width="2.55">
            <g id="medium-svgrepo-com" transform="translate(151.000000, 4.000000)">
                <path d="M6.88888889,14 C10.6935189,14 13.7777778,10.865925 13.7777778,7 C13.7777778,3.134005 10.6935189,0 6.88888889,0 C3.08425889,0 0,3.134005 0,7 C0,10.865925 3.08425889,14 6.88888889,14 Z" id="Path"></path>
                <path d="M20.6666667,14 C22.5690333,14 24.1111111,10.865925 24.1111111,7 C24.1111111,3.134005 22.5690333,0 20.6666667,0 C18.7643,0 17.2222222,3.134005 17.2222222,7 C17.2222222,10.865925 18.7643,14 20.6666667,14 Z" id="Path"></path>
                <path d="M29.2777778,14 C30.2289611,14 31,10.865925 31,7 C31,3.134005 30.2289611,0 29.2777778,0 C28.3265944,0 27.5555556,3.134005 27.5555556,7 C27.5555556,10.865925 28.3265944,14 29.2777778,14 Z" id="Path"></path>
            </g>
        </g>
    </g>
</svg>