<?xml version="1.0" encoding="UTF-8"?>
<svg width="24px" height="21px" viewBox="0 0 24 21" version="1.1" xmlns="http://www.w3.org/2000/svg" xmlns:xlink="http://www.w3.org/1999/xlink">
    <title>Combined Shape</title>
    <g id="Symbols" stroke="none" stroke-width="1" fill="none" fill-rule="evenodd">
        <g id="Social-icons" transform="translate(-52.000000, -1.000000)" fill="#2595CC" fill-rule="nonzero">
            <path d="M75.9858504,1.78939201 L71.9128823,21.4783316 C71.816959,21.943189 71.274562,22.1538334 70.8918593,21.8743524 L65.3318898,17.8175898 C64.9943678,17.5712637 64.5341037,17.5843571 64.2109816,17.8491367 L61.1283319,20.3744965 C60.7706196,20.6685258 60.2314987,20.5046657 60.094509,20.0618606 L57.9540255,13.1436719 L52.4239224,11.0694633 C51.8621731,10.8579766 51.8573732,10.060958 52.4175225,9.84411136 L75.1131695,1.04505368 C75.5943097,0.858069393 76.090688,1.28165541 75.9858504,1.78939201 Z M71.1115584,5.12788293 L60.182675,11.824148 C59.7637912,12.0812928 59.5666377,12.5845454 59.7017715,13.0556838 L60.8833827,17.1861726 C60.9674369,17.4788041 61.3942561,17.4489125 61.435166,17.146547 L61.7422601,14.8814501 C61.8002736,14.454996 62.0046692,14.0618825 62.3217789,13.7684079 L71.341147,5.42771913 C71.5100257,5.27212928 71.3078644,5.00793313 71.1115584,5.12788293 Z" id="Combined-Shape"></path>
        </g>
    </g>
</svg>