<?xml version="1.0" encoding="UTF-8"?>
<svg width="26px" height="20px" viewBox="0 0 26 20" version="1.1" xmlns="http://www.w3.org/2000/svg" xmlns:xlink="http://www.w3.org/1999/xlink">
    <title>Fill 44</title>
    <g id="Symbols" stroke="none" stroke-width="1" fill="none" fill-rule="evenodd">
        <g id="Social-icons" transform="translate(-202.000000, -1.000000)" fill="#2595CC">
            <path d="M227.889294,3.42833333 C227.759294,3.28833333 227.546095,3.25083333 227.371895,3.33416667 C227.168229,3.4325 226.717563,3.57166667 226.224431,3.6925 C226.724496,3.14 227.142229,2.47166667 227.308628,1.88166667 C227.356295,1.7125 227.289562,1.53416667 227.142229,1.4325 C226.993162,1.33083333 226.795563,1.33 226.646497,1.42833333 C226.312831,1.64666667 224.745034,2.2875 223.772637,2.47333333 C222.565373,1.45583333 221.368509,1 219.917712,1 C218.843914,1 217.846383,1.28416667 216.684186,1.92083333 C214.612857,3.05583333 214.299125,5.55333333 214.477658,7.0175 C208.750737,6.55833333 205.541478,3.49 204.407881,2.16083333 C204.318614,2.05666667 204.181681,1.9975 204.042148,2.00916667 C203.901749,2.01916667 203.775215,2.0925 203.702416,2.20833333 C202.946684,3.40333333 202.737818,4.74416667 203.100084,6.085 C203.32715,6.92583333 203.751816,7.66583333 204.230214,8.24416667 C203.882682,8.07 203.541216,7.84833333 203.24915,7.625 C203.11915,7.525 202.940617,7.5075 202.791551,7.57583333 C202.641618,7.64583333 202.546285,7.79083333 202.546285,7.95083333 C202.546285,10.3758333 204.246681,12.0308333 205.712211,12.8483333 C205.388945,12.7941667 205.052679,12.7066667 204.74328,12.6183333 C204.57948,12.5716667 204.402681,12.6208333 204.291748,12.745 C204.179948,12.8683333 204.154815,13.0441667 204.225881,13.1925 C205.123746,15.0541667 206.938542,16.425 208.946604,16.8366667 C207.211541,17.8783333 204.750213,18.3983333 202.482152,18.1508333 C202.279352,18.1316667 202.083486,18.25 202.020219,18.44 C201.95782,18.6291667 202.043619,18.835 202.225619,18.9308333 C204.866346,20.3233333 207.60934,21 210.6106,21 L210.629666,21 C214.857257,20.9966667 218.791915,19.2583333 221.707375,16.1066667 C224.350702,13.25 225.726965,9.62833333 225.422766,6.3675 C226.136898,5.8825 227.249695,4.94333333 227.930027,3.93333333 C228.036627,3.77583333 228.02016,3.56833333 227.889294,3.42833333" id="Fill-44"></path>
        </g>
    </g>
</svg>