<?xml version="1.0" encoding="UTF-8"?>
<svg width="30px" height="22px" viewBox="0 0 30 22" version="1.1" xmlns="http://www.w3.org/2000/svg" xmlns:xlink="http://www.w3.org/1999/xlink">
    <title>Fill 50 Copy</title>
    <g id="Symbols" stroke="none" stroke-width="1" fill="none" fill-rule="evenodd">
        <g id="Social-icons" transform="translate(-100.000000, 0.000000)" fill="#2595CC">
            <path d="M120.7609,11.427 L111.7609,16.927 C111.6809,16.976 111.5909,17 111.4999,17 C111.4159,17 111.3319,16.979 111.2559,16.936 C111.0979,16.848 110.9999,16.681 110.9999,16.5 L110.9999,5.5 C110.9999,5.32 111.0979,5.153 111.2559,5.064 C111.4139,4.976 111.6069,4.979 111.7609,5.073 L120.7609,10.573 C120.9089,10.664 120.9999,10.826 120.9999,11 C120.9999,11.175 120.9089,11.336 120.7609,11.427 M125.8729,0.682 C125.1149,0.619 124.3789,0.551 123.6489,0.484 C120.9569,0.235 118.4149,0 114.9999,0 C111.7009,0 108.9339,0.251 106.2589,0.494 C105.5529,0.558 104.8459,0.622 104.1269,0.682 C101.8129,0.876 99.9999,2.845 99.9999,5.167 L99.9999,16.834 C99.9999,19.155 101.8129,21.125 104.1269,21.318 C104.8789,21.381 105.6089,21.448 106.3349,21.515 C109.0469,21.764 111.6089,22 114.9999,22 C118.4869,22 120.9709,21.768 123.6029,21.523 C124.3439,21.453 125.0939,21.384 125.8729,21.318 C128.1879,21.125 129.9999,19.155 129.9999,16.834 L129.9999,5.167 C129.9999,2.845 128.1879,0.876 125.8729,0.682" id="Fill-50-Copy"></path>
        </g>
    </g>
</svg>